<svg xmlns="http://www.w3.org/2000/svg" width="82" height="82" viewBox="0 0 82 82">
    <g fill="none" fill-rule="evenodd">
        <path fill="#71808B" fill-opacity=".1" d="M35.274 66v-3.955L49.25 46.518c2.5-2.793 4.194-5.01 5.083-6.65.889-1.641 1.333-3.321 1.333-5.04 0-2.129-.625-3.92-1.875-5.376-1.25-1.455-2.9-2.182-4.951-2.182-2.95 0-5.117.751-6.504 2.255-1.387 1.504-2.08 3.633-2.08 6.387h-5.537l-.059-.176c-.097-3.672 1.118-6.757 3.648-9.257 2.529-2.5 6.04-3.75 10.532-3.75 3.848 0 6.909 1.118 9.184 3.354 2.276 2.236 3.414 5.083 3.414 8.54 0 2.324-.689 4.648-2.066 6.973-1.377 2.324-3.315 4.834-5.815 7.529L42.335 61.342l.059.146H57.54l.469-4.892H62.9V66H35.274z"/>
        <path fill="#FFF" stroke="#419F8E" d="M28.274 62v-3.955L42.25 42.518c2.5-2.793 4.194-5.01 5.083-6.65.889-1.641 1.333-3.321 1.333-5.04 0-2.129-.625-3.92-1.875-5.376-1.25-1.455-2.9-2.182-4.951-2.182-2.95 0-5.117.751-6.504 2.255-1.387 1.504-2.08 3.633-2.08 6.387h-5.537l-.059-.176c-.097-3.672 1.118-6.757 3.648-9.257 2.529-2.5 6.04-3.75 10.532-3.75 3.848 0 6.909 1.118 9.184 3.354 2.276 2.236 3.414 5.083 3.414 8.54 0 2.324-.689 4.648-2.066 6.973-1.377 2.324-3.315 4.834-5.815 7.529L35.335 57.342l.059.146H50.54l.469-4.892H55.9V62H28.274z" opacity=".5"/>
        <g stroke="#419F8E" stroke-opacity=".5" stroke-width="2" transform="translate(1 1)">
            <circle cx="40" cy="40" r="40"/>
        </g>
    </g>
</svg>
