<svg xmlns="http://www.w3.org/2000/svg" width="82" height="82" viewBox="0 0 82 82">
    <g fill="none" fill-rule="evenodd">
        <path fill="#71808B" fill-opacity=".1" d="M43.434 42.006h5.039c2.558 0 4.37-.64 5.434-1.92 1.065-1.278 1.597-3.06 1.597-5.346 0-2.441-.606-4.297-1.817-5.566-1.21-1.27-2.998-1.904-5.36-1.904-2.247 0-4.049.659-5.406 1.977-1.358 1.318-2.036 3.071-2.036 5.259h-5.537l-.059-.176c-.098-3.223 1.07-5.962 3.501-8.218 2.432-2.256 5.61-3.383 9.536-3.383 3.946 0 7.09 1.05 9.434 3.149 2.344 2.1 3.515 5.093 3.515 8.98 0 1.757-.532 3.51-1.596 5.258-1.065 1.748-2.661 3.081-4.79 4 2.558.84 4.37 2.157 5.434 3.954 1.065 1.797 1.597 3.809 1.597 6.035 0 3.887-1.274 6.944-3.823 9.17-2.55 2.227-5.806 3.34-9.77 3.34-3.907 0-7.13-1.05-9.669-3.15-2.539-2.099-3.76-4.945-3.662-8.54l.088-.175h5.508c0 2.246.688 4.033 2.065 5.361 1.377 1.328 3.267 1.993 5.67 1.993 2.44 0 4.355-.665 5.741-1.993 1.387-1.328 2.08-3.29 2.08-5.888 0-2.637-.615-4.58-1.845-5.83s-3.174-1.875-5.83-1.875h-5.04v-4.512z"/>
        <path fill="#FFF" stroke="#419F8E" d="M36.434 38.006h5.039c2.558 0 4.37-.64 5.434-1.92 1.065-1.278 1.597-3.06 1.597-5.346 0-2.441-.606-4.297-1.817-5.566-1.21-1.27-2.998-1.904-5.36-1.904-2.247 0-4.049.659-5.406 1.977-1.358 1.318-2.036 3.071-2.036 5.259h-5.537l-.059-.176c-.098-3.223 1.07-5.962 3.501-8.218 2.432-2.256 5.61-3.383 9.536-3.383 3.946 0 7.09 1.05 9.434 3.149 2.344 2.1 3.515 5.093 3.515 8.98 0 1.757-.532 3.51-1.596 5.258-1.065 1.748-2.661 3.081-4.79 4 2.558.84 4.37 2.157 5.434 3.954 1.065 1.797 1.597 3.809 1.597 6.035 0 3.887-1.274 6.944-3.823 9.17-2.55 2.227-5.806 3.34-9.77 3.34-3.907 0-7.13-1.05-9.669-3.15-2.539-2.099-3.76-4.945-3.662-8.54l.088-.175h5.508c0 2.246.688 4.033 2.065 5.361 1.377 1.328 3.267 1.993 5.67 1.993 2.44 0 4.355-.665 5.741-1.993 1.387-1.328 2.08-3.29 2.08-5.888 0-2.637-.615-4.58-1.845-5.83s-3.174-1.875-5.83-1.875h-5.04v-4.512z" opacity=".5"/>
        <g stroke="#419F8E" stroke-opacity=".5" stroke-width="2" transform="translate(1 1)">
            <circle cx="40" cy="40" r="40"/>
        </g>
    </g>
</svg>
