<svg xmlns="http://www.w3.org/2000/svg" width="82" height="82" viewBox="0 0 82 82">
    <g fill="none" fill-rule="evenodd">
        <g opacity=".5">
            <path fill="#71808B" fill-opacity=".1" d="M57.16 31.781l-.557-3.31H43.858l-1.377 11.982a12.69 12.69 0 0 1 2.974-1.655c1.104-.44 2.378-.679 3.823-.718 3.926-.039 7.017 1.24 9.273 3.838 2.256 2.598 3.384 6.094 3.384 10.488 0 4.278-1.148 7.715-3.443 10.313-2.295 2.597-5.64 3.896-10.034 3.896-3.613 0-6.616-.986-9.009-2.959-2.392-1.972-3.54-4.873-3.442-8.7l.058-.177h5.215c0 2.305.67 4.102 2.007 5.39 1.338 1.29 3.062 1.935 5.171 1.935 2.441 0 4.336-.86 5.684-2.579 1.347-1.718 2.021-4.072 2.021-7.06 0-2.754-.679-5.005-2.036-6.753-1.357-1.748-3.237-2.622-5.64-2.622-2.265 0-3.91.342-4.936 1.025-1.026.684-1.773 1.729-2.241 3.135l-4.805-.498 2.46-23.408h22.53v8.437H57.16z"/>
            <path fill="#FFF" stroke="#419F8E" d="M50.16 27.781l-.557-3.31H36.858l-1.377 11.982a12.69 12.69 0 0 1 2.974-1.655c1.104-.44 2.378-.679 3.823-.718 3.926-.039 7.017 1.24 9.273 3.838 2.256 2.598 3.384 6.094 3.384 10.488 0 4.278-1.148 7.715-3.443 10.313-2.295 2.597-5.64 3.896-10.034 3.896-3.613 0-6.616-.986-9.009-2.959-2.392-1.972-3.54-4.873-3.442-8.7l.058-.177h5.215c0 2.305.67 4.102 2.007 5.39 1.338 1.29 3.062 1.935 5.171 1.935 2.441 0 4.336-.86 5.684-2.579 1.347-1.718 2.021-4.072 2.021-7.06 0-2.754-.679-5.005-2.036-6.753-1.357-1.748-3.237-2.622-5.64-2.622-2.265 0-3.91.342-4.936 1.025-1.026.684-1.773 1.729-2.241 3.135l-4.805-.498 2.46-23.408h22.53v8.437H50.16z"/>
        </g>
        <circle cx="40" cy="40" r="40" stroke="#419F8E" stroke-opacity=".5" stroke-width="2" transform="translate(1 1)"/>
    </g>
</svg>
