<svg xmlns="http://www.w3.org/2000/svg" width="99" height="66" viewBox="0 0 99 66">
    <g fill="none" fill-rule="evenodd" transform="translate(1 1)">
        <path fill="#68D992" stroke="#FFF" stroke-width="2" d="M0 7.084v32.932a1 1 0 0 0 .618.924c13.283 5.499 27.556 5.412 42.817-.26 14.934-5.55 28.542-5.752 40.825-.606a1 1 0 0 0 1.387-.922V5.986a1 1 0 0 0-.517-.876c-12.515-6.909-26.617-6.812-42.307.29-15.296 6.924-29.083 7.19-41.361.797A1 1 0 0 0 0 7.084z"/>
        <path fill="#68D992" stroke="#FFF" stroke-width="2" d="M11 20.084v32.932a1 1 0 0 0 .618.924c13.283 5.499 27.556 5.412 42.817-.26 14.934-5.55 28.542-5.752 40.825-.606a1 1 0 0 0 1.387-.922V18.986a1 1 0 0 0-.517-.876c-12.515-6.909-26.617-6.812-42.307.29-15.296 6.924-29.083 7.19-41.361.797a1 1 0 0 0-1.462.887z"/>
        <circle cx="63.5" cy="48.5" r="15.5" fill="#68D992" stroke="#FFF" stroke-width="2"/>
        <path fill="#FFF" d="M69 44.5a1 1 0 0 1-2 0c0-2.084-.763-3.156-2.5-3.43v6.441C68.416 47.688 70 49.97 70 53s-1.584 5.312-5.5 5.489V59a1 1 0 0 1-2 0v-.645c-1.566-.32-2.741-1.16-3.527-2.374C58.319 54.97 58 53.759 58 53a1 1 0 0 1 2 0c0 .391.22 1.226.652 1.894a3.288 3.288 0 0 0 1.848 1.4v-6.912c-2.59-.433-4.155-2.056-4.492-4.758L58 44.5c0-3.203 1.584-5.102 4.5-5.444V38a1 1 0 0 1 2 0v1.056c2.916.342 4.5 2.24 4.5 5.444zm-4.5 5.013v6.974c2.628-.143 3.5-1.45 3.5-3.487 0-2.038-.872-3.344-3.5-3.487zm-2-2.163v-6.28c-1.72.27-2.484 1.324-2.5 3.367.22 1.627 1.003 2.57 2.5 2.913z"/>
    </g>
</svg>
