<svg xmlns="http://www.w3.org/2000/svg" width="85" height="65" viewBox="0 0 85 65">
    <path fill="#000" fill-rule="nonzero" d="M84.106 17.826c0-.591-.394-1.182-.985-1.379l-4.333-1.576 4.53-2.068c.591-.295.887-.886.887-1.477 0-.591-.394-1.182-.985-1.379L58.697 1.182c-1.083-.394-2.167-.296-3.152.098l-32.5 14.97c-4.628 2.167-13.492 3.152-20.878.985-.788-.197-1.675.197-1.97.985-.295.788.197 1.674.985 1.97l15.462 5.515L1.97 32.5c-.591.295-.887.886-.887 1.477 0 .591.394 1.182.985 1.38L6.5 36.931l-4.53 2.166c-.591.296-.985.887-.887 1.478 0 .59.394 1.182.985 1.379L6.5 43.53l-4.53 2.167c-.591.295-.887.886-.887 1.477 0 .591.394 1.182.985 1.379L6.5 50.129l-4.53 2.166c-.591.296-.887.887-.887 1.478 0 .59.394 1.182.985 1.379l24.424 8.765c.493.197.985.295 1.478.295.59 0 1.28-.098 1.87-.394l53.38-24.72c.59-.295.886-.886.886-1.477 0-.59-.394-1.182-.985-1.379l-4.432-1.575 4.53-2.167c.592-.295.887-.886.887-1.477 0-.591-.394-1.182-.985-1.38l-4.432-1.575 4.53-2.166c.592-.296.887-.887.887-1.478 0-.59-.394-1.182-.985-1.379L78.69 21.47l4.53-2.167c.592-.295.986-.886.887-1.477zm-5.515.197L65 24.424v-3.053l9.947-4.629 3.644 1.28zM56.727 4.038c.296-.099.493-.099.788 0l20.977 7.485-15.462 7.19-21.37-7.683 15.067-6.992zm-18.81 8.864l24.128 8.568v24.227l-5.909 3.053V24.818c0-.69-.984-1.28-1.575-1.477L32.5 15.462l5.417-2.56zM13.985 21.47c4.038-.296 7.682-1.182 10.34-2.364l3.743-1.773 21.371 7.682-.886.394c-4.629 2.167-13.492 3.152-20.78.985L13.985 21.47zm6.795 5.712l6.008 2.166c3.151.985 6.598 1.38 9.848 1.38 5.122 0 10.538-.986 13.788-2.463l2.758-.985v3.053l-24.03 10.834c-.296.197-.985.197-1.28 0L6.893 33.682l13.886-6.5zm5.712 16.94c.493.196.985.295 1.478.295.59 0 1.87-.099 2.462-.394l22.75-10.243v3.152l-24.03 10.833c-.296.197-.985.197-1.28 0L6.893 40.28l3.94-1.87 15.658 5.711zm0 6.598c.493.197.985.295 1.478.295.59 0 1.87-.098 2.462-.394l22.75-10.242v3.151l-24.03 10.834c-.296.197-.985.197-1.28 0L6.893 46.879l3.94-1.871 15.658 5.712zm2.66 10.242c-.296.197-.985.197-1.28 0L6.893 53.477l3.94-1.87 15.757 5.711c.492.197.985.296 1.477.296.591 0 1.871-.099 2.462-.394l22.652-10.243v3.152l-24.03 10.833zM78.59 37.818L65 44.22v-3.152l9.848-4.629 3.743 1.38zm0-6.598L65 37.62V34.47l9.848-4.63 3.743 1.38zm0-6.599L65 31.023V27.87l9.848-4.629 3.743 1.38z"/>
</svg>
