<svg xmlns="http://www.w3.org/2000/svg" width="103" height="65" viewBox="0 0 103 65">
    <path fill="#000" fill-rule="nonzero" d="M102.715 27.009L86.601 1.485a1.682 1.682 0 0 0-2.328-.519L72.972 8.208a1.682 1.682 0 0 0-.515 2.313l.964 1.527-2.335.942a1.228 1.228 0 0 1-.712.063l-7.217-1.516a32.253 32.253 0 0 0-12.574-.146l-6.788 1.262a9.863 9.863 0 0 0-4.924 2.486l-6.318-1.003a1.249 1.249 0 0 1-.375-.124l-2.967-1.54c1.625-3.703.352-8.146-3.168-10.369a8.265 8.265 0 0 0-6.273-1.08 8.263 8.263 0 0 0-5.2 3.673L1.414 25.536a8.265 8.265 0 0 0-1.08 6.272 8.26 8.26 0 0 0 3.673 5.199 8.265 8.265 0 0 0 6.273 1.08 8.254 8.254 0 0 0 4.415-2.635l5.329 7.027-1.782 2.547c-1.692 2.418-1.111 5.78 1.291 7.491l.095.068c.903.642 1.954.98 3.036.996 0 1.725.805 3.427 2.313 4.488a5.413 5.413 0 0 0 4.118.907c.304-.055.595-.148.88-.25.466 1.21 1.327 2.239 2.482 2.86a5.447 5.447 0 0 0 2.593.657c.83 0 1.649-.195 2.394-.56a4.93 4.93 0 0 0 2.471 2.24 5.01 5.01 0 0 0 1.91.382c1.499 0 2.937-.69 3.898-1.932l8.158 1.248a10.66 10.66 0 0 0 9.168-2.98c.193.018.386.033.577.033a6.091 6.091 0 0 0 5.112-2.78c.621-.857.932-1.892.92-2.939.024 0 .05.005.074.005 2.1 0 4.162-1.026 5.38-2.876a4.957 4.957 0 0 0 .794-2.457c.137.01.273.027.41.027a5.949 5.949 0 0 0 4.97-2.681 5.917 5.917 0 0 0 .86-4.502c-.044-.21-.126-.406-.191-.608l6.445-6.09.172.272a1.681 1.681 0 0 0 2.329.517l11.3-7.24a1.682 1.682 0 0 0 .515-2.313zM9.538 34.807a4.92 4.92 0 0 1-3.737-.643 4.919 4.919 0 0 1-2.188-3.097 4.922 4.922 0 0 1 .644-3.737L17.414 6.49a4.922 4.922 0 0 1 3.097-2.187 4.926 4.926 0 0 1 3.737.643 4.96 4.96 0 0 1 1.544 6.834L12.635 32.62a4.92 4.92 0 0 1-3.097 2.187zM21.485 49.78a2.044 2.044 0 0 1-.489-2.828l3.202-4.577a2.021 2.021 0 0 1 1.662-.864c.377 0 .762.103 1.113.32.478.296.807.76.924 1.309.107.5.016 1.006-.24 1.444l-3.367 4.93a2.007 2.007 0 0 1-1.174.677c-.545.1-1.09-.026-1.537-.344l-.094-.067zm7.008 5.888a2.088 2.088 0 0 1-1.59-.354 2.107 2.107 0 0 1-.524-2.899l.689-1.007c.045-.06.1-.11.143-.171.993-1.452 2.168-3.18 3.163-4.644.026-.04.04-.084.066-.123l2.687-3.934a2.104 2.104 0 0 1 1.74-.91 2.085 2.085 0 0 1 2.05 1.68 2.086 2.086 0 0 1-.324 1.596l-.922 1.352c-.02.029-.048.05-.068.08l-5.056 7.349c-.09.13-.148.278-.225.415l-.47.688c-.319.468-.802.781-1.359.882zm5.56 2.96l-.023-.012a2.074 2.074 0 0 1-1.025-1.345 2.071 2.071 0 0 1 .095-1.28l5.336-7.825a2.073 2.073 0 0 1 1.365-.814 2.064 2.064 0 0 1 1.62.445 2.112 2.112 0 0 1 .41 2.822l-1.514 2.203c-.038.05-.086.09-.122.14l-2.46 3.535c-.084.12-.135.255-.207.38l-.751 1.092a2.093 2.093 0 0 1-2.725.658zm7.144 2.187a1.596 1.596 0 0 1-.881-2.059l2.76-4.012a1.581 1.581 0 0 1 1.199-.547c.358 0 .7.12.987.345l.026.023c.641.526.772 1.472.297 2.152l-2.463 3.533a1.59 1.59 0 0 1-1.925.565zM78.479 45.12a2.591 2.591 0 0 1-3.498.798l-1.483-.887-.285-.171-12.539-7.504a1.68 1.68 0 1 0-1.727 2.885l12.826 7.675c.388.233.657.604.758 1.045.102.442.02.896-.229 1.274a3.066 3.066 0 0 1-4.002 1L57.117 45.14a1.681 1.681 0 1 0-1.609 2.953l8.073 4.399 1.99 1.215c.373.227.624.59.708 1.019.083.43-.015.86-.276 1.21a2.646 2.646 0 0 0-.068.099 2.742 2.742 0 0 1-3.564.971l-8.659-4.396a1.682 1.682 0 0 0-1.522 2.999l7.202 3.656a7.341 7.341 0 0 1-5.004 1.032l-6.507-.995.462-.663c1.46-2.094 1.072-5-.88-6.64a4.948 4.948 0 0 0-2.148-1.03c.6-2.061-.035-4.373-1.778-5.786a5.463 5.463 0 0 0-3.24-1.197 5.46 5.46 0 0 0-.084-1.34 5.414 5.414 0 0 0-2.374-3.504c-2.45-1.593-5.772-.941-7.445 1.445a5.485 5.485 0 0 0-1.692-1.64 5.402 5.402 0 0 0-6.592.72l-5.428-7.158 10.82-17.138 3.127 1.624c.437.227.906.381 1.394.46l4.356.691-4.403 5.727a4.559 4.559 0 0 0-.909 3.41 4.553 4.553 0 0 0 1.779 3.046 4.607 4.607 0 0 0 4.895.408l12.296-6.428c.39-.205.864-.183 1.235.058l26.453 17.145c.585.38.986.964 1.13 1.647.142.682.009 1.379-.376 1.96zm1.543-6.057c-.156-.125-.299-.263-.468-.373L53.1 21.546a4.599 4.599 0 0 0-4.62-.215l-12.297 6.427a1.23 1.23 0 0 1-1.784-.923 1.22 1.22 0 0 1 .243-.912l5.787-7.527a6.517 6.517 0 0 1 3.98-2.438l6.788-1.262a28.89 28.89 0 0 1 11.27.131l7.217 1.517a4.582 4.582 0 0 0 2.659-.236l2.902-1.17L86.57 32.875l-6.548 6.19zM90.51 32.82l-14.32-22.681 8.47-5.428 14.32 22.682-8.47 5.427z"/>
</svg>
