<svg xmlns="http://www.w3.org/2000/svg" xmlns:xlink="http://www.w3.org/1999/xlink" width="95" height="63" viewBox="0 0 95 63">
    <defs>
        <rect id="a" width="9.295" height="16.109" x="21.79" y="34.208" rx="4.648"/>
        <rect id="b" width="9.295" height="16.109" x="27.79" y="40.255" rx="4.648"/>
        <rect id="c" width="9.295" height="16.109" x="35.205" y="44.303" rx="4.648"/>
        <rect id="d" width="9.295" height="13.115" x="43.155" y="49.881" rx="4.648"/>
    </defs>
    <g fill="none" fill-rule="evenodd" transform="translate(-5)">
        <path fill="#EA9F8F" stroke="#FFF" stroke-width="1.5" d="M76.5 11.59c-2-3.024-2.5-4.788-1.5-5.292 1-.503 3.5-2.015 7.5-4.534 1.5-.504 2.5-.252 3 .755.5 1.008 4.75 8.062 12.75 21.163 1 1.008 1 1.764 0 2.268-1 .503-3.75 2.267-8.25 5.29-1.167 1.008-2.167.504-3-1.511-.833-2.016-4.333-8.062-10.5-18.14zM30.538 12.093c3 2.52 5.75 3.527 8.25 3.023 3.75-.756 13.5 2.268 15.75 3.78 1.5 1.007 8.904 6.802 22.212 17.383 3.692 2.52 4.788 4.787 3.288 6.802-2.25 3.024-6.288 1.512-7.038.756s3.462 1.512.75 4.535c-1.808 2.016-3.712 2.016-5.712 0l1.5 1.512c2.55 2.57-.574 4.3-2.538 5.29-1 .504-2.154.252-3.462-.755 1.082 1.09-.724 5.596-3 5.29-7.5-1.007-16-4.283-25.5-9.825-7-6.047-12-12.345-15-18.896-3-6.55.5-12.848 10.5-18.895z"/>
        <g transform="rotate(45 26.438 42.263)">
            <use fill="#EA9F8F" xlink:href="#a"/>
            <rect width="7.795" height="14.609" x="22.54" y="34.958" stroke="#FFF" stroke-width="1.5" rx="3.898"/>
        </g>
        <g transform="rotate(45 32.438 48.31)">
            <use fill="#EA9F8F" xlink:href="#b"/>
            <rect width="7.795" height="14.609" x="28.54" y="41.005" stroke="#FFF" stroke-width="1.5" rx="3.898"/>
        </g>
        <g transform="rotate(45 39.852 52.357)">
            <use fill="#EA9F8F" xlink:href="#c"/>
            <rect width="7.795" height="14.609" x="35.955" y="45.053" stroke="#FFF" stroke-width="1.5" rx="3.898"/>
        </g>
        <g transform="rotate(45 47.802 56.439)">
            <use fill="#EA9F8F" xlink:href="#d"/>
            <rect width="7.795" height="11.615" x="43.905" y="50.631" stroke="#FFF" stroke-width="1.5" rx="3.898"/>
        </g>
        <rect width="11.365" height="1.512" x="54.153" y="50.365" fill="#FFF" rx=".756" transform="rotate(40 59.835 51.12)"/>
        <rect width="15.203" height="1.512" x="61.204" y="39.515" fill="#FFF" rx=".756" transform="rotate(40 68.805 40.27)"/>
        <rect width="13.926" height="1.512" x="58.353" y="45.148" fill="#FFF" rx=".756" transform="rotate(40 65.316 45.903)"/>
        <path fill="#EA9F8F" stroke="#FFF" stroke-width="1.5" d="M43.225 14.136c-4.5 2.267-6 7.558-8.25 9.07-2.25 1.511-.75 6.046 6 3.023 6.75-3.024 10.5-8.823 13.5-6.803.973.655 8.973 6.701 24 18.14 5-2.52 7.75-5.039 8.25-7.558-1.5-2.52-5-8.566-10.5-18.14-2.5 2.016-6.5 2.016-12 0-8.25-3.023-14.487-.077-21 2.268zM20.514 5.415c2.157-2.913 3.643-3.986 4.459-3.219.815.768 3.09 2.6 6.826 5.497.987 1.237 1.092 2.263.316 3.078-.776.814-5.95 7.22-15.525 19.219-.605 1.284-1.316 1.543-2.131.775-.816-.767-3.413-2.748-7.793-5.943-1.346-.751-1.215-1.863.394-3.336 1.609-1.472 6.094-6.83 13.454-16.07z"/>
    </g>
</svg>
