<svg xmlns="http://www.w3.org/2000/svg" width="24" height="24" viewBox="0 0 24 24">
    <path fill="#FFF" fill-rule="evenodd" d="M22.225 0h-.003C23.2 0 24 .774 24 1.729v20.542c0 .956-.8 1.729-1.778 1.729H1.771C.792 24 0 23.227 0 22.271V1.729C0 .774.792 0 1.771 0h20.454zM12 3c-2.445 0-2.75.011-3.71.054-.959.045-1.611.196-2.185.419A4.407 4.407 0 0 0 4.51 4.51c-.5.5-.809 1.002-1.037 1.594-.223.574-.375 1.226-.419 2.185C3.009 9.25 3 9.555 3 12c0 2.445.011 2.75.054 3.71.045.958.196 1.611.419 2.185.229.591.537 1.094 1.038 1.595.5.499 1.002.809 1.594 1.038.574.222 1.227.374 2.185.418.96.045 1.265.054 3.71.054 2.445 0 2.75-.011 3.71-.054.958-.045 1.611-.197 2.185-.419a4.424 4.424 0 0 0 1.595-1.038c.499-.5.809-1 1.038-1.594.222-.574.374-1.227.418-2.185.045-.96.054-1.265.054-3.71 0-2.445-.011-2.75-.054-3.71-.045-.958-.197-1.612-.419-2.185A4.417 4.417 0 0 0 19.49 4.51c-.5-.5-1-.809-1.594-1.037-.574-.223-1.227-.375-2.185-.419C14.75 3.009 14.445 3 12 3zM8 5h8a3 3 0 0 1 3 3v8a3 3 0 0 1-3 3H8a3 3 0 0 1-3-3V8a3 3 0 0 1 3-3zm4 2.378a4.621 4.621 0 1 0 0 9.243 4.621 4.621 0 0 0 0-9.242zM12 15a3 3 0 1 1 0-6 3 3 0 1 1 0 6zm5.884-7.804a1.08 1.08 0 1 0-2.16.003 1.08 1.08 0 0 0 2.16-.003z"/>
</svg>
