<svg xmlns="http://www.w3.org/2000/svg" width="61" height="53" viewBox="0 0 61 53">
    <g fill="none" fill-rule="evenodd">
        <path fill="#71808B" fill-opacity=".1" d="M45 52.64c-6.933 0-10.4-3.947-10.4-11.84 0-9.387 6.133-20.587 18.4-33.6l7.2 6.08c-5.653 7.573-8.48 13.227-8.48 16.96 0 .64.187 1.36.56 2.16.373.8.827 1.76 1.36 2.88.533 1.12.96 2.347 1.28 3.68.32 1.333.48 2.587.48 3.76 0 2.56-.96 4.853-2.88 6.88s-4.427 3.04-7.52 3.04zm-31.2 0c-6.933 0-10.4-3.947-10.4-11.84 0-9.387 6.133-20.587 18.4-33.6l7.2 6.08c-5.653 7.573-8.48 13.227-8.48 16.96 0 .64.187 1.36.56 2.16.373.8.827 1.76 1.36 2.88.533 1.12.96 2.347 1.28 3.68.32 1.333.48 2.587.48 3.76 0 2.56-.96 4.853-2.88 6.88s-4.427 3.04-7.52 3.04z"/>
        <path stroke="#419F8E" stroke-width="1.3" d="M43 46.64c-6.933 0-10.4-3.947-10.4-11.84 0-9.387 6.133-20.587 18.4-33.6l7.2 6.08c-5.653 7.573-8.48 13.227-8.48 16.96 0 .64.187 1.36.56 2.16.373.8.827 1.76 1.36 2.88.533 1.12.96 2.347 1.28 3.68.32 1.333.48 2.587.48 3.76 0 2.56-.96 4.853-2.88 6.88s-4.427 3.04-7.52 3.04zm-31.2 0c-6.933 0-10.4-3.947-10.4-11.84 0-9.387 6.133-20.587 18.4-33.6L27 7.28c-5.653 7.573-8.48 13.227-8.48 16.96 0 .64.187 1.36.56 2.16.373.8.827 1.76 1.36 2.88.533 1.12.96 2.347 1.28 3.68.32 1.333.48 2.587.48 3.76 0 2.56-.96 4.853-2.88 6.88s-4.427 3.04-7.52 3.04z" opacity=".5"/>
    </g>
</svg>
