<svg xmlns="http://www.w3.org/2000/svg" xmlns:xlink="http://www.w3.org/1999/xlink" width="79" height="137" viewBox="0 0 79 137">
    <defs>
        <path id="a" d="M0 136.312h78.618V0H0z"/>
    </defs>
    <g fill="none" fill-rule="evenodd">
        <path fill="#FFF" fill-rule="nonzero" d="M46 104.5c-6.836-2.323-5.622-20.356-6.733-27.667v9.739c0 10.843-8.79 19.635-19.633 19.635C8.79 106.207 0 97.415 0 86.572V67.584c0-10.843 8.79-19.633 19.633-19.633 9.832 0 17.975 7.227 19.409 16.659V50.297c0-10.843 8.79-19.633 19.633-19.633s19.633 8.79 19.633 19.633v18.856c.1.927.15 1.869.15 2.822v32.417H52.357L46 104.5z"/>
        <g>
            <mask id="b" fill="#fff">
                <use xlink:href="#a"/>
            </mask>
            <path fill="#FFF" fill-rule="nonzero" d="M35.153 68.247h11.01l2.079-26.342L62.68 31.057c18.053 4.808 15.853 23.696 15.853 23.696l-.074 21.885H62.922v1.153h-27.77l17.205.001v42.56H26.179v15.96H0v-58.52h9.537v-19.12h25.616v9.575zm-4.037-38.814c0 6.342-5.14 11.482-11.482 11.482S8.15 35.775 8.15 29.433s5.14-11.483 11.483-11.483c6.342 0 11.482 5.14 11.482 11.483zm39.042-17.95c0 6.341-5.14 11.481-11.482 11.481s-11.482-5.14-11.482-11.482S52.334 0 58.676 0s11.482 5.14 11.482 11.482z" mask="url(#b)"/>
        </g>
    </g>
</svg>
