<svg xmlns="http://www.w3.org/2000/svg" width="24" height="24" viewBox="0 0 24 24">
    <path fill="#FFF" fill-rule="evenodd" d="M22.225 0h-.003C23.2 0 24 .774 24 1.729v20.542c0 .956-.8 1.729-1.778 1.729H1.771C.792 24 0 23.227 0 22.271V1.729C0 .774.792 0 1.771 0h20.454zm-1.26 6.742a7.5 7.5 0 0 1-2.119.581 3.718 3.718 0 0 0 1.622-2.042 7.622 7.622 0 0 1-2.345.888 3.69 3.69 0 0 0-6.288 3.361A10.45 10.45 0 0 1 4.23 5.687c-.32.542-.5 1.17-.5 1.856a3.69 3.69 0 0 0 1.641 3.072 3.678 3.678 0 0 1-1.67-.462v.046c0 1.789 1.27 3.28 2.959 3.62a3.747 3.747 0 0 1-1.66.064 3.702 3.702 0 0 0 3.454 2.563 7.4 7.4 0 0 1-4.577 1.578c-.292 0-.584-.017-.877-.05a10.496 10.496 0 0 0 5.668 1.657c6.79 0 10.498-5.622 10.498-10.49 0-.156 0-.314-.01-.472A7.452 7.452 0 0 0 21 6.758l-.035-.016z"/>
</svg>
